<svg width="12" height="20" viewBox="0 0 12 20" fill="none" xmlns="http://www.w3.org/2000/svg">
<path d="M11.645 10.8084L2.71636 19.6615C2.50985 19.8664 2.23513 19.9785 1.9429 19.977C1.65067 19.9755 1.37727 19.8606 1.17317 19.6536L0.523307 18.9951C0.100439 18.5661 0.104499 17.8722 0.532359 17.4481L8.02997 10.0139L0.611584 2.49534C0.407484 2.28832 0.295736 2.01316 0.297449 1.72038C0.299164 1.42727 0.414126 1.15328 0.620637 0.948187L1.27817 0.296535C1.48484 0.0916109 1.75941 -0.0204651 2.05163 -0.0189758C2.34386 -0.0174865 2.61726 0.0973822 2.82136 0.3044L11.6541 9.25608C11.8587 9.46375 11.9701 9.74021 11.9677 10.0335C11.9667 10.3279 11.852 10.603 11.645 10.8084Z" fill="#595555"/>
</svg>
