<svg width="12" height="20" viewBox="0 0 12 20" fill="none" xmlns="http://www.w3.org/2000/svg">
<path d="M0.361096 9.20939L9.2612 0.327653C9.46705 0.122063 9.74141 0.00910368 10.0336 0.00965195C10.3259 0.0102002 10.5996 0.124188 10.8044 0.330548L11.4564 0.986929C11.8806 1.41463 11.8788 2.10848 11.4523 2.53394L3.97869 9.99229L11.4212 17.4869C11.626 17.6933 11.7386 17.9681 11.7379 18.2609C11.7371 18.554 11.623 18.8283 11.4172 19.0341L10.7617 19.6879C10.5557 19.8934 10.2815 20.0064 9.9893 20.0059C9.69707 20.0053 9.4233 19.8913 9.21854 19.685L0.357012 10.7618C0.151763 10.5548 0.0394562 10.2787 0.0408764 9.98539C0.0410025 9.69097 0.15476 9.41547 0.361096 9.20939Z" fill="#595555"/>
</svg>
